<svg width="48" height="48" viewBox="0 0 48 48" fill="none" xmlns="http://www.w3.org/2000/svg">
<g clip-path="url(#clip0_270_536)">
<circle cx="24" cy="24" r="24" fill="url(#paint0_linear_270_536)"/>
<path fill-rule="evenodd" clip-rule="evenodd" d="M23.627 44.2857C34.8304 44.2857 43.9127 35.2035 43.9127 24C43.9127 12.7965 34.8304 3.71429 23.627 3.71429C12.4235 3.71429 3.34124 12.7965 3.34124 24C3.34124 35.2035 12.4235 44.2857 23.627 44.2857ZM23.627 46C35.7772 46 45.627 36.1503 45.627 24C45.627 11.8497 35.7772 2 23.627 2C11.4767 2 1.62695 11.8497 1.62695 24C1.62695 36.1503 11.4767 46 23.627 46Z" fill="url(#paint1_linear_270_536)"/>
<g filter="url(#filter0_d_270_536)">
<path d="M31.0885 32.1607C30.0416 33.3498 28.6786 34.1518 27.0885 34.5574C26.3971 34.7325 26.0811 35.0736 26.1206 35.7465C26.1502 36.4102 26.1206 37.0647 26.1107 37.7284C26.1107 38.3184 25.7848 38.6318 25.1626 38.6502C24.7576 38.6594 24.3527 38.6686 23.9477 38.6686C23.5922 38.6686 23.2366 38.6686 22.8811 38.6594C22.2095 38.6502 21.8934 38.2907 21.8934 37.6823C21.8835 37.203 21.8835 36.7144 21.8835 36.2351C21.8737 35.1658 21.8342 35.1289 20.7379 34.963C19.3354 34.7509 17.9527 34.456 16.6687 33.8752C15.6613 33.4143 15.5527 33.1839 15.8391 32.1883C16.0564 31.4509 16.2737 30.7134 16.5206 29.9852C16.6984 29.4505 16.8663 29.2109 17.1724 29.2109C17.3502 29.2109 17.5774 29.2938 17.8835 29.4413C19.3058 30.1327 20.8169 30.5198 22.407 30.7042C22.6737 30.7319 22.9403 30.7503 23.207 30.7503C23.9477 30.7503 24.6687 30.6212 25.37 30.3355C27.1379 29.6165 27.4144 27.7083 25.923 26.5653C25.4193 26.1781 24.8366 25.8923 24.2342 25.6435C22.6835 25.0074 21.0737 24.5281 19.6119 23.7077C17.2416 22.3802 15.7403 20.5643 15.9181 17.8726C16.1156 14.8306 17.9626 12.9317 20.9551 11.9177C22.1897 11.5029 22.1996 11.5121 22.1996 10.3137C22.1996 9.90815 22.1897 9.50255 22.2095 9.08774C22.2391 8.18436 22.3971 8.02765 23.365 8C23.4737 8 23.5922 8 23.7008 8C23.8885 8 24.0761 8 24.2638 8C24.3428 8 24.4218 8 24.4909 8C26.328 8 26.328 8.07375 26.3379 9.92658C26.3477 11.2909 26.3477 11.2909 27.7996 11.5029C28.9156 11.6688 29.9724 11.973 30.9996 12.397C31.5626 12.6275 31.7798 12.9962 31.6021 13.5585C31.3453 14.3881 31.0984 15.227 30.8218 16.0474C30.644 16.5452 30.4761 16.7756 30.1601 16.7756C29.9823 16.7756 29.765 16.7111 29.4885 16.5821C28.0663 15.9368 26.5749 15.6234 25.0144 15.6234C24.8169 15.6234 24.6095 15.6326 24.4119 15.6418C23.9477 15.6695 23.4934 15.7248 23.0588 15.8999C21.5181 16.5267 21.2712 18.1123 22.5848 19.0894C23.2465 19.5872 24.007 19.9374 24.7872 20.2416C26.1502 20.7671 27.5132 21.2741 28.807 21.9378C32.8761 24.0579 33.9823 28.879 31.0885 32.1607Z" fill="white"/>
</g>
</g>
<defs>
<filter id="filter0_d_270_536" x="14.7016" y="8" width="19.01" height="32.6687" filterUnits="userSpaceOnUse" color-interpolation-filters="sRGB">
<feFlood flood-opacity="0" result="BackgroundImageFix"/>
<feColorMatrix in="SourceAlpha" type="matrix" values="0 0 0 0 0 0 0 0 0 0 0 0 0 0 0 0 0 0 127 0" result="hardAlpha"/>
<feOffset dy="1"/>
<feGaussianBlur stdDeviation="0.5"/>
<feComposite in2="hardAlpha" operator="out"/>
<feColorMatrix type="matrix" values="0 0 0 0 0 0 0 0 0 0 0 0 0 0 0 0 0 0 0.25 0"/>
<feBlend mode="normal" in2="BackgroundImageFix" result="effect1_dropShadow_270_536"/>
<feBlend mode="normal" in="SourceGraphic" in2="effect1_dropShadow_270_536" result="shape"/>
</filter>
<linearGradient id="paint0_linear_270_536" x1="24" y1="0" x2="24" y2="48" gradientUnits="userSpaceOnUse">
<stop stop-color="#FFE033"/>
<stop offset="1" stop-color="#FF7B3E"/>
</linearGradient>
<linearGradient id="paint1_linear_270_536" x1="23.627" y1="46" x2="23.627" y2="2" gradientUnits="userSpaceOnUse">
<stop stop-color="#FF3633"/>
<stop offset="1" stop-color="#FFA347"/>
</linearGradient>
<clipPath id="clip0_270_536">
<rect width="48" height="48" fill="white"/>
</clipPath>
</defs>
</svg>
