<svg xmlns="http://www.w3.org/2000/svg" xmlns:xlink="http://www.w3.org/1999/xlink" width="100" zoomAndPan="magnify" viewBox="0 0 75 74.999997" height="100" preserveAspectRatio="xMidYMid meet" version="1.0"><defs><clipPath id="164487d7a8"><path d="M 30 5.730469 L 44 5.730469 L 44 18 L 30 18 Z M 30 5.730469 " clip-rule="nonzero"/></clipPath><clipPath id="1751e66ded"><path d="M 31 58 L 44 58 L 44 69.480469 L 31 69.480469 Z M 31 58 " clip-rule="nonzero"/></clipPath><clipPath id="84bbb2fd32"><path d="M 5.691406 24 L 20 24 L 20 36 L 5.691406 36 Z M 5.691406 24 " clip-rule="nonzero"/></clipPath><clipPath id="60f536fab5"><path d="M 5.691406 38 L 19 38 L 19 50 L 5.691406 50 Z M 5.691406 38 " clip-rule="nonzero"/></clipPath><clipPath id="08c81e6016"><path d="M 55 24 L 69.441406 24 L 69.441406 36 L 55 36 Z M 55 24 " clip-rule="nonzero"/></clipPath><clipPath id="7ad806415b"><path d="M 56 37 L 69.441406 37 L 69.441406 50 L 56 50 Z M 56 37 " clip-rule="nonzero"/></clipPath></defs><path fill="#ffde00" d="M 37.328125 18.570312 C 26.191406 18.570312 17.175781 27.082031 17.175781 37.574219 C 17.175781 48.070312 26.191406 56.582031 37.328125 56.582031 C 48.457031 56.582031 57.484375 48.070312 57.484375 37.574219 C 57.484375 27.082031 48.457031 18.570312 37.328125 18.570312 Z M 37.328125 18.570312 " fill-opacity="1" fill-rule="nonzero"/><path fill="#ff9d00" d="M 28.796875 17.171875 L 16.027344 11.273438 L 19.246094 23.578125 L 21.144531 22.605469 C 23.570312 20.261719 26.597656 18.515625 28.796875 17.171875 Z M 28.796875 17.171875 " fill-opacity="1" fill-rule="nonzero"/><path fill="#ff9d00" d="M 19.773438 50.984375 L 17.175781 62.886719 L 29.402344 57.570312 C 25.578125 56.21875 22.292969 53.921875 19.773438 50.984375 Z M 19.773438 50.984375 " fill-opacity="1" fill-rule="nonzero"/><g clip-path="url(#164487d7a8)"><path fill="#ff9d00" d="M 43.617188 17.3125 L 43.703125 17.3125 L 36.417969 5.753906 L 30.945312 16.917969 C 32.777344 16.476562 34.660156 16.164062 36.628906 16.164062 C 39.089844 16.164062 41.40625 16.628906 43.617188 17.3125 Z M 43.617188 17.3125 " fill-opacity="1" fill-rule="nonzero"/></g><g clip-path="url(#1751e66ded)"><path fill="#ff9d00" d="M 31.003906 58.265625 L 38.058594 69.441406 L 43.648438 58.011719 L 43.019531 58.003906 C 40.964844 58.585938 38.832031 58.988281 36.570312 58.988281 C 34.636719 58.988281 32.800781 58.699219 31.003906 58.265625 Z M 31.003906 58.265625 " fill-opacity="1" fill-rule="nonzero"/></g><g clip-path="url(#84bbb2fd32)"><path fill="#ff9d00" d="M 19.390625 24.589844 L 5.6875 28.292969 L 14.863281 35.417969 C 15.300781 31.371094 16.898438 27.667969 19.390625 24.597656 Z M 19.390625 24.589844 " fill-opacity="1" fill-rule="nonzero"/></g><g clip-path="url(#60f536fab5)"><path fill="#ff9d00" d="M 5.898438 47.9375 L 18.242188 49.085938 C 16.082031 45.898438 14.796875 42.136719 14.695312 38.09375 Z M 5.898438 47.9375 " fill-opacity="1" fill-rule="nonzero"/></g><path fill="#ff9d00" d="M 55.324219 23.578125 L 58.359375 11.523438 L 45.027344 17.507812 C 47.96875 18.511719 55.324219 23.578125 55.324219 23.578125 Z M 55.324219 23.578125 " fill-opacity="1" fill-rule="nonzero"/><path fill="#ff9d00" d="M 55.34375 50.492188 C 52.835938 53.597656 49.507812 56.046875 45.589844 57.480469 L 58.359375 62.097656 Z M 55.34375 50.492188 " fill-opacity="1" fill-rule="nonzero"/><g clip-path="url(#08c81e6016)"><path fill="#ff9d00" d="M 69.441406 28.292969 L 55.738281 24.589844 L 55.953125 25.363281 C 58.171875 28.347656 59.503906 31.90625 59.859375 35.738281 Z M 69.441406 28.292969 " fill-opacity="1" fill-rule="nonzero"/></g><g clip-path="url(#7ad806415b)"><path fill="#ff9d00" d="M 69.234375 47.9375 L 60.046875 37.652344 L 60.046875 37.65625 C 60.03125 41.886719 58.679688 45.808594 56.421875 49.121094 Z M 69.234375 47.9375 " fill-opacity="1" fill-rule="nonzero"/></g><path fill="#8b5b1a" d="M 37.066406 43.007812 C 36.089844 43.007812 35.148438 42.714844 34.414062 42.179688 C 34.1875 42.007812 33.992188 41.828125 33.824219 41.640625 C 33.589844 41.378906 33.609375 40.972656 33.875 40.738281 C 34.136719 40.5 34.542969 40.523438 34.777344 40.789062 C 34.890625 40.914062 35.023438 41.035156 35.179688 41.152344 C 35.683594 41.523438 36.359375 41.730469 37.066406 41.730469 C 38.640625 41.730469 40.503906 40.40625 40.503906 39.285156 C 40.503906 38.933594 40.792969 38.644531 41.144531 38.644531 C 41.496094 38.644531 41.785156 38.933594 41.785156 39.285156 C 41.785156 41.292969 39.191406 43.007812 37.066406 43.007812 Z M 37.066406 43.007812 " fill-opacity="1" fill-rule="nonzero"/><path fill="#ff9c7c" d="M 27.484375 41.734375 C 27.484375 43.078125 25.789062 44.171875 23.699219 44.171875 C 21.605469 44.171875 19.910156 43.078125 19.910156 41.734375 C 19.910156 40.378906 21.605469 39.285156 23.699219 39.285156 C 25.789062 39.285156 27.484375 40.378906 27.484375 41.734375 Z M 27.484375 41.734375 " fill-opacity="1" fill-rule="evenodd"/><path fill="#ff9c7c" d="M 54.269531 41.734375 C 54.269531 43.078125 52.570312 44.171875 50.476562 44.171875 C 48.382812 44.171875 46.683594 43.078125 46.683594 41.734375 C 46.683594 40.378906 48.382812 39.285156 50.476562 39.285156 C 52.570312 39.285156 54.269531 40.378906 54.269531 41.734375 Z M 54.269531 41.734375 " fill-opacity="1" fill-rule="evenodd"/><path fill="#231815" d="M 23.855469 31.332031 C 26.117188 30.769531 33.402344 29.179688 34.71875 32.144531 C 35.398438 33.683594 33.734375 36.710938 32.625 37.625 C 31.214844 38.785156 29.300781 39.339844 27.503906 39.472656 C 24.628906 39.679688 22.429688 37.089844 21.566406 34.445312 C 21.109375 33.058594 22.125 31.761719 23.855469 31.332031 Z M 23.855469 31.332031 " fill-opacity="1" fill-rule="nonzero"/><path fill="#231815" d="M 41.839844 33.398438 C 39.070312 32.242188 32.140625 33.246094 32.070312 33.253906 L 31.882812 31.988281 C 32.183594 31.945312 39.238281 30.921875 42.332031 32.214844 Z M 41.839844 33.398438 " fill-opacity="1" fill-rule="nonzero"/><path fill="#231815" d="M 20.660156 33.621094 C 20.386719 33.621094 20.132812 33.441406 20.050781 33.164062 C 19.949219 32.824219 20.140625 32.46875 20.480469 32.367188 L 23.773438 31.382812 C 24.113281 31.28125 24.46875 31.472656 24.570312 31.8125 C 24.667969 32.152344 24.476562 32.507812 24.136719 32.609375 L 20.84375 33.59375 C 20.785156 33.613281 20.722656 33.621094 20.660156 33.621094 Z M 20.660156 33.621094 " fill-opacity="1" fill-rule="nonzero"/><path fill="#231815" d="M 50.628906 31.332031 C 48.371094 30.769531 41.089844 29.179688 39.769531 32.144531 C 39.085938 33.683594 40.75 36.710938 41.855469 37.625 C 43.273438 38.785156 45.1875 39.339844 46.980469 39.472656 C 49.855469 39.679688 52.0625 37.089844 52.925781 34.445312 C 53.386719 33.058594 52.355469 31.761719 50.628906 31.332031 Z M 50.628906 31.332031 " fill-opacity="1" fill-rule="nonzero"/><path fill="#231815" d="M 32.65625 33.398438 L 32.160156 32.214844 C 35.25 30.921875 42.304688 31.945312 42.605469 31.988281 L 42.417969 33.253906 C 42.347656 33.246094 35.414062 32.242188 32.65625 33.398438 Z M 32.65625 33.398438 " fill-opacity="1" fill-rule="nonzero"/><path fill="#231815" d="M 53.828125 33.621094 C 53.765625 33.621094 53.703125 33.613281 53.644531 33.59375 L 50.351562 32.609375 C 50.015625 32.507812 49.824219 32.152344 49.925781 31.8125 C 50.023438 31.472656 50.378906 31.28125 50.71875 31.382812 L 54.011719 32.367188 C 54.347656 32.46875 54.539062 32.824219 54.4375 33.164062 C 54.355469 33.441406 54.101562 33.621094 53.828125 33.621094 Z M 53.828125 33.621094 " fill-opacity="1" fill-rule="nonzero"/><path fill="#ffffff" d="M 51.621094 33.683594 C 51.566406 33.683594 51.511719 33.667969 51.464844 33.640625 C 47.191406 31.238281 42.632812 32.296875 42.585938 32.308594 C 42.414062 32.347656 42.242188 32.242188 42.199219 32.070312 C 42.160156 31.898438 42.265625 31.726562 42.4375 31.683594 C 42.632812 31.636719 47.277344 30.554688 51.777344 33.082031 C 51.929688 33.167969 51.984375 33.363281 51.898438 33.519531 C 51.839844 33.621094 51.730469 33.683594 51.621094 33.683594 Z M 51.621094 33.683594 " fill-opacity="1" fill-rule="nonzero"/><path fill="#ffffff" d="M 22.921875 33.683594 C 22.808594 33.683594 22.703125 33.621094 22.644531 33.519531 C 22.558594 33.363281 22.613281 33.167969 22.765625 33.082031 C 27.273438 30.554688 31.917969 31.636719 32.113281 31.683594 C 32.285156 31.726562 32.390625 31.898438 32.347656 32.070312 C 32.304688 32.242188 32.136719 32.347656 31.960938 32.308594 C 31.917969 32.296875 27.363281 31.238281 23.078125 33.640625 C 23.027344 33.667969 22.976562 33.683594 22.921875 33.683594 Z M 22.921875 33.683594 " fill-opacity="1" fill-rule="nonzero"/></svg>