<svg xmlns="http://www.w3.org/2000/svg" xmlns:xlink="http://www.w3.org/1999/xlink" width="100" zoomAndPan="magnify" viewBox="0 0 75 74.999997" height="100" preserveAspectRatio="xMidYMid meet" version="1.0"><defs><clipPath id="33e0024478"><path d="M 7 7.480469 L 68 7.480469 L 68 67.480469 L 7 67.480469 Z M 7 7.480469 " clip-rule="nonzero"/></clipPath></defs><path fill="#f86868" d="M 44.386719 14.765625 C 44.386719 15.199219 44.34375 15.628906 44.257812 16.054688 C 44.171875 16.480469 44.046875 16.894531 43.878906 17.296875 C 43.710938 17.699219 43.507812 18.078125 43.265625 18.441406 C 43.023438 18.800781 42.746094 19.136719 42.4375 19.441406 C 42.128906 19.75 41.792969 20.023438 41.429688 20.265625 C 41.066406 20.507812 40.683594 20.710938 40.277344 20.875 C 39.875 21.042969 39.457031 21.167969 39.03125 21.253906 C 38.601562 21.335938 38.167969 21.378906 37.730469 21.378906 C 37.292969 21.378906 36.863281 21.335938 36.433594 21.253906 C 36.003906 21.167969 35.589844 21.042969 35.183594 20.875 C 34.78125 20.710938 34.398438 20.507812 34.035156 20.265625 C 33.671875 20.023438 33.335938 19.75 33.023438 19.441406 C 32.714844 19.136719 32.441406 18.800781 32.199219 18.441406 C 31.953125 18.078125 31.75 17.699219 31.582031 17.296875 C 31.414062 16.894531 31.289062 16.480469 31.203125 16.054688 C 31.117188 15.628906 31.074219 15.199219 31.074219 14.765625 C 31.074219 14.332031 31.117188 13.902344 31.203125 13.476562 C 31.289062 13.050781 31.414062 12.636719 31.582031 12.234375 C 31.75 11.832031 31.953125 11.453125 32.199219 11.089844 C 32.441406 10.730469 32.714844 10.394531 33.023438 10.089844 C 33.335938 9.78125 33.671875 9.507812 34.035156 9.265625 C 34.398438 9.023438 34.78125 8.820312 35.183594 8.65625 C 35.589844 8.488281 36.003906 8.363281 36.433594 8.277344 C 36.863281 8.195312 37.292969 8.152344 37.730469 8.152344 C 38.167969 8.152344 38.601562 8.195312 39.03125 8.277344 C 39.457031 8.363281 39.875 8.488281 40.277344 8.65625 C 40.683594 8.820312 41.066406 9.023438 41.429688 9.265625 C 41.792969 9.507812 42.128906 9.78125 42.4375 10.089844 C 42.746094 10.394531 43.023438 10.730469 43.265625 11.089844 C 43.507812 11.453125 43.710938 11.832031 43.878906 12.234375 C 44.046875 12.636719 44.171875 13.050781 44.257812 13.476562 C 44.34375 13.902344 44.386719 14.332031 44.386719 14.765625 Z M 44.386719 14.765625 " fill-opacity="1" fill-rule="nonzero"/><path fill="#1eb975" d="M 67.257812 24.179688 C 67.257812 24.613281 67.214844 25.042969 67.128906 25.46875 C 67.042969 25.898438 66.917969 26.308594 66.75 26.710938 C 66.582031 27.113281 66.378906 27.492188 66.136719 27.855469 C 65.894531 28.214844 65.617188 28.550781 65.308594 28.855469 C 65 29.164062 64.664062 29.4375 64.300781 29.679688 C 63.9375 29.921875 63.550781 30.125 63.148438 30.289062 C 62.746094 30.457031 62.328125 30.582031 61.902344 30.667969 C 61.472656 30.753906 61.039062 30.792969 60.601562 30.792969 C 60.164062 30.792969 59.730469 30.753906 59.304688 30.667969 C 58.875 30.582031 58.457031 30.457031 58.054688 30.289062 C 57.652344 30.125 57.269531 29.921875 56.90625 29.679688 C 56.542969 29.4375 56.203125 29.164062 55.894531 28.855469 C 55.585938 28.550781 55.3125 28.214844 55.066406 27.855469 C 54.824219 27.492188 54.621094 27.113281 54.453125 26.710938 C 54.285156 26.308594 54.160156 25.898438 54.074219 25.46875 C 53.988281 25.042969 53.945312 24.613281 53.945312 24.179688 C 53.945312 23.746094 53.988281 23.316406 54.074219 22.890625 C 54.160156 22.464844 54.285156 22.050781 54.453125 21.648438 C 54.621094 21.246094 54.824219 20.867188 55.066406 20.503906 C 55.3125 20.144531 55.585938 19.808594 55.894531 19.503906 C 56.203125 19.195312 56.542969 18.921875 56.90625 18.679688 C 57.269531 18.441406 57.652344 18.234375 58.054688 18.070312 C 58.457031 17.902344 58.875 17.777344 59.304688 17.691406 C 59.730469 17.609375 60.164062 17.566406 60.601562 17.566406 C 61.039062 17.566406 61.472656 17.609375 61.902344 17.691406 C 62.328125 17.777344 62.746094 17.902344 63.148438 18.070312 C 63.550781 18.234375 63.9375 18.441406 64.300781 18.679688 C 64.664062 18.921875 65 19.195312 65.308594 19.503906 C 65.617188 19.808594 65.894531 20.144531 66.136719 20.503906 C 66.378906 20.867188 66.582031 21.246094 66.75 21.648438 C 66.917969 22.050781 67.042969 22.464844 67.128906 22.890625 C 67.214844 23.316406 67.257812 23.746094 67.257812 24.179688 Z M 67.257812 24.179688 " fill-opacity="1" fill-rule="nonzero"/><path fill="#f9ae5b" d="M 21.515625 24.179688 C 21.515625 24.613281 21.472656 25.042969 21.386719 25.46875 C 21.300781 25.898438 21.175781 26.308594 21.007812 26.710938 C 20.84375 27.113281 20.636719 27.492188 20.394531 27.855469 C 20.152344 28.214844 19.875 28.550781 19.566406 28.855469 C 19.257812 29.164062 18.921875 29.4375 18.558594 29.679688 C 18.195312 29.921875 17.8125 30.125 17.40625 30.289062 C 17.003906 30.457031 16.585938 30.582031 16.160156 30.667969 C 15.730469 30.753906 15.296875 30.792969 14.859375 30.792969 C 14.421875 30.792969 13.992188 30.753906 13.5625 30.667969 C 13.132812 30.582031 12.71875 30.457031 12.3125 30.289062 C 11.910156 30.125 11.527344 29.921875 11.164062 29.679688 C 10.800781 29.4375 10.464844 29.164062 10.152344 28.855469 C 9.84375 28.550781 9.570312 28.214844 9.328125 27.855469 C 9.082031 27.492188 8.878906 27.113281 8.710938 26.710938 C 8.542969 26.308594 8.417969 25.898438 8.332031 25.46875 C 8.246094 25.042969 8.203125 24.613281 8.203125 24.179688 C 8.203125 23.746094 8.246094 23.316406 8.332031 22.890625 C 8.417969 22.464844 8.542969 22.050781 8.710938 21.648438 C 8.878906 21.246094 9.082031 20.867188 9.328125 20.503906 C 9.570312 20.144531 9.84375 19.808594 10.152344 19.503906 C 10.464844 19.195312 10.800781 18.921875 11.164062 18.679688 C 11.527344 18.441406 11.910156 18.234375 12.3125 18.070312 C 12.71875 17.902344 13.132812 17.777344 13.5625 17.691406 C 13.992188 17.609375 14.421875 17.566406 14.859375 17.566406 C 15.296875 17.566406 15.730469 17.609375 16.160156 17.691406 C 16.585938 17.777344 17.003906 17.902344 17.40625 18.070312 C 17.8125 18.234375 18.195312 18.441406 18.558594 18.679688 C 18.921875 18.921875 19.257812 19.195312 19.566406 19.503906 C 19.875 19.808594 20.152344 20.144531 20.394531 20.503906 C 20.636719 20.867188 20.84375 21.246094 21.007812 21.648438 C 21.175781 22.050781 21.300781 22.464844 21.386719 22.890625 C 21.472656 23.316406 21.515625 23.746094 21.515625 24.179688 Z M 21.515625 24.179688 " fill-opacity="1" fill-rule="nonzero"/><path fill="#ffffff" d="M 62.371094 21.882812 C 62.371094 22.117188 62.328125 22.339844 62.238281 22.554688 C 62.148438 22.773438 62.019531 22.960938 61.855469 23.125 C 61.6875 23.292969 61.496094 23.417969 61.28125 23.507812 C 61.0625 23.597656 60.835938 23.640625 60.601562 23.640625 C 60.367188 23.640625 60.140625 23.597656 59.925781 23.507812 C 59.707031 23.417969 59.515625 23.292969 59.351562 23.125 C 59.183594 22.960938 59.054688 22.773438 58.964844 22.554688 C 58.875 22.339844 58.832031 22.117188 58.832031 21.882812 C 58.832031 21.648438 58.875 21.425781 58.964844 21.210938 C 59.054688 20.992188 59.183594 20.804688 59.351562 20.636719 C 59.515625 20.472656 59.707031 20.347656 59.925781 20.257812 C 60.140625 20.167969 60.367188 20.121094 60.601562 20.121094 C 60.835938 20.121094 61.0625 20.167969 61.28125 20.257812 C 61.496094 20.347656 61.6875 20.472656 61.855469 20.636719 C 62.019531 20.804688 62.148438 20.992188 62.238281 21.210938 C 62.328125 21.425781 62.371094 21.648438 62.371094 21.882812 Z M 62.371094 21.882812 " fill-opacity="1" fill-rule="nonzero"/><path fill="#ffffff" d="M 60.601562 23.640625 C 58.546875 23.640625 56.878906 25.296875 56.878906 27.34375 L 64.324219 27.34375 C 64.324219 25.296875 62.660156 23.640625 60.601562 23.640625 Z M 60.601562 23.640625 " fill-opacity="1" fill-rule="nonzero"/><path fill="#ffffff" d="M 16.632812 21.882812 C 16.632812 22.117188 16.585938 22.339844 16.496094 22.554688 C 16.40625 22.773438 16.277344 22.960938 16.113281 23.125 C 15.945312 23.292969 15.753906 23.417969 15.539062 23.507812 C 15.320312 23.597656 15.09375 23.640625 14.859375 23.640625 C 14.625 23.640625 14.398438 23.597656 14.183594 23.507812 C 13.964844 23.417969 13.773438 23.292969 13.609375 23.125 C 13.441406 22.960938 13.3125 22.773438 13.222656 22.554688 C 13.132812 22.339844 13.089844 22.117188 13.089844 21.882812 C 13.089844 21.648438 13.132812 21.425781 13.222656 21.210938 C 13.3125 20.992188 13.441406 20.804688 13.609375 20.636719 C 13.773438 20.472656 13.964844 20.347656 14.183594 20.257812 C 14.398438 20.167969 14.625 20.121094 14.859375 20.121094 C 15.09375 20.121094 15.320312 20.167969 15.539062 20.257812 C 15.753906 20.347656 15.945312 20.472656 16.113281 20.636719 C 16.277344 20.804688 16.40625 20.992188 16.496094 21.210938 C 16.585938 21.425781 16.632812 21.648438 16.632812 21.882812 Z M 16.632812 21.882812 " fill-opacity="1" fill-rule="nonzero"/><path fill="#ffffff" d="M 14.859375 23.640625 C 12.804688 23.640625 11.136719 25.296875 11.136719 27.34375 L 18.582031 27.34375 C 18.582031 25.296875 16.917969 23.640625 14.859375 23.640625 Z M 14.859375 23.640625 " fill-opacity="1" fill-rule="nonzero"/><path fill="#ffffff" d="M 39.5 12.445312 C 39.5 12.679688 39.457031 12.90625 39.367188 13.121094 C 39.277344 13.335938 39.148438 13.527344 38.984375 13.691406 C 38.816406 13.855469 38.625 13.984375 38.410156 14.074219 C 38.191406 14.160156 37.964844 14.207031 37.730469 14.207031 C 37.496094 14.207031 37.269531 14.160156 37.054688 14.074219 C 36.835938 13.984375 36.644531 13.855469 36.480469 13.691406 C 36.3125 13.527344 36.183594 13.335938 36.09375 13.121094 C 36.003906 12.90625 35.960938 12.679688 35.960938 12.445312 C 35.960938 12.214844 36.003906 11.988281 36.09375 11.773438 C 36.183594 11.558594 36.3125 11.367188 36.480469 11.203125 C 36.644531 11.039062 36.835938 10.910156 37.054688 10.820312 C 37.269531 10.730469 37.496094 10.6875 37.730469 10.6875 C 37.964844 10.6875 38.191406 10.730469 38.410156 10.820312 C 38.625 10.910156 38.816406 11.039062 38.984375 11.203125 C 39.148438 11.367188 39.277344 11.558594 39.367188 11.773438 C 39.457031 11.988281 39.5 12.214844 39.5 12.445312 Z M 39.5 12.445312 " fill-opacity="1" fill-rule="nonzero"/><path fill="#ffffff" d="M 37.730469 14.207031 C 35.675781 14.207031 34.007812 15.863281 34.007812 17.90625 L 41.453125 17.90625 C 41.453125 15.863281 39.789062 14.207031 37.730469 14.207031 Z M 37.730469 14.207031 " fill-opacity="1" fill-rule="nonzero"/><path fill="#d3d6dd" d="M 51.917969 60.828125 C 48.308594 64.460938 43.28125 66.714844 37.734375 66.714844 C 32.179688 66.714844 27.164062 64.460938 23.5625 60.816406 C 24.203125 53.597656 30.308594 47.933594 37.734375 47.933594 C 45.171875 47.933594 51.273438 53.605469 51.917969 60.828125 Z M 51.917969 60.828125 " fill-opacity="1" fill-rule="nonzero"/><g clip-path="url(#33e0024478)"><path fill="#000000" d="M 65.808594 19.003906 C 62.933594 16.144531 58.273438 16.144531 55.394531 19.003906 C 52.683594 21.699219 52.53125 25.957031 54.917969 28.832031 L 51.808594 31.925781 C 48.277344 28.652344 43.597656 26.59375 38.441406 26.417969 L 38.441406 22.046875 C 42.167969 21.691406 45.09375 18.5625 45.09375 14.765625 C 45.09375 10.730469 41.792969 7.445312 37.730469 7.445312 C 33.671875 7.445312 30.367188 10.730469 30.367188 14.765625 C 30.367188 18.5625 33.292969 21.691406 37.023438 22.046875 L 37.023438 26.417969 C 31.867188 26.59375 27.1875 28.652344 23.660156 31.929688 L 20.542969 28.832031 C 22.933594 25.957031 22.777344 21.695312 20.066406 19.007812 C 17.191406 16.144531 12.53125 16.144531 9.652344 19.007812 C 6.78125 21.859375 6.78125 26.503906 9.652344 29.355469 C 12.359375 32.046875 16.648438 32.203125 19.542969 29.828125 L 22.65625 32.925781 C 19.210938 36.59375 17.097656 41.507812 17.097656 46.910156 C 17.097656 58.429688 26.578125 67.417969 37.734375 67.417969 C 49.03125 67.417969 58.378906 58.324219 58.378906 46.910156 C 58.378906 41.507812 56.261719 36.585938 52.808594 32.921875 L 55.921875 29.828125 C 58.816406 32.203125 63.101562 32.046875 65.808594 29.355469 C 68.6875 26.496094 68.6875 21.863281 65.808594 19.003906 Z M 31.785156 14.765625 C 31.785156 11.507812 34.453125 8.855469 37.730469 8.855469 C 41.011719 8.855469 43.679688 11.507812 43.679688 14.765625 C 43.679688 18.023438 41.011719 20.675781 37.730469 20.675781 C 34.453125 20.675781 31.785156 18.023438 31.785156 14.765625 Z M 10.65625 28.359375 C 8.335938 26.054688 8.335938 22.304688 10.65625 20 C 12.976562 17.691406 16.742188 17.691406 19.066406 20 C 21.390625 22.3125 21.390625 26.046875 19.066406 28.359375 C 16.742188 30.667969 12.976562 30.667969 10.65625 28.359375 Z M 32.234375 41.820312 C 32.234375 38.804688 34.703125 36.347656 37.738281 36.347656 C 40.773438 36.347656 43.242188 38.804688 43.242188 41.820312 C 43.242188 49.015625 32.234375 48.992188 32.234375 41.820312 Z M 37.738281 48.699219 C 44.910156 48.699219 50.429688 54.117188 51.171875 60.539062 C 47.417969 64.207031 42.570312 66.007812 37.730469 66.007812 C 32.863281 66.007812 28.027344 64.171875 24.304688 60.542969 C 25.042969 54.132812 30.539062 48.699219 37.738281 48.699219 Z M 52.398438 59.230469 C 51.273438 53.574219 46.863281 49.078125 41.328125 47.691406 C 43.320312 46.480469 44.660156 44.304688 44.660156 41.820312 C 44.660156 38.027344 41.554688 34.941406 37.738281 34.941406 C 33.921875 34.941406 30.816406 38.027344 30.816406 41.820312 C 30.816406 44.304688 32.15625 46.480469 34.148438 47.6875 C 28.609375 49.078125 24.199219 53.574219 23.082031 59.234375 C 20.140625 55.789062 18.515625 51.460938 18.515625 46.910156 C 18.515625 36.378906 27.136719 27.808594 37.734375 27.808594 C 48.335938 27.808594 56.964844 36.378906 56.964844 46.910156 C 56.960938 51.457031 55.339844 55.78125 52.398438 59.230469 Z M 64.804688 28.359375 C 62.484375 30.667969 58.722656 30.667969 56.398438 28.359375 C 54.074219 26.046875 54.070312 22.3125 56.398438 20 C 58.722656 17.691406 62.484375 17.691406 64.804688 20 C 67.132812 22.3125 67.132812 26.046875 64.804688 28.359375 Z M 64.804688 28.359375 " fill-opacity="1" fill-rule="nonzero"/></g></svg>