<svg xmlns="http://www.w3.org/2000/svg" xmlns:xlink="http://www.w3.org/1999/xlink" width="100" zoomAndPan="magnify" viewBox="0 0 75 74.999997" height="100" preserveAspectRatio="xMidYMid meet" version="1.0"><defs><clipPath id="44ad1eb066"><path d="M 2.699219 5.734375 L 72.449219 5.734375 L 72.449219 69.484375 L 2.699219 69.484375 Z M 2.699219 5.734375 " clip-rule="nonzero"/></clipPath><clipPath id="008ebe8070"><path d="M 2.699219 15 L 72.449219 15 L 72.449219 69.484375 L 2.699219 69.484375 Z M 2.699219 15 " clip-rule="nonzero"/></clipPath><clipPath id="3a3594064d"><path d="M 11 5.734375 L 72.449219 5.734375 L 72.449219 69 L 11 69 Z M 11 5.734375 " clip-rule="nonzero"/></clipPath><clipPath id="c4257324ce"><path d="M 2.699219 12 L 59 12 L 59 69.484375 L 2.699219 69.484375 Z M 2.699219 12 " clip-rule="nonzero"/></clipPath><clipPath id="8172343bff"><path d="M 2.699219 5.734375 L 72.449219 5.734375 L 72.449219 69.484375 L 2.699219 69.484375 Z M 2.699219 5.734375 " clip-rule="nonzero"/></clipPath></defs><g clip-path="url(#44ad1eb066)"><path fill="#32312b" d="M 72.269531 47.949219 L 58.84375 32.761719 L 58.84375 21.183594 C 58.84375 21.179688 58.84375 21.179688 58.84375 21.179688 C 58.84375 21.167969 58.839844 21.152344 58.835938 21.140625 C 58.832031 21.132812 58.828125 21.125 58.820312 21.121094 L 45.390625 5.820312 C 45.367188 5.792969 45.328125 5.785156 45.292969 5.792969 L 22.910156 12.1875 C 22.910156 12.1875 22.90625 12.191406 22.90625 12.191406 C 22.898438 12.195312 22.894531 12.195312 22.890625 12.199219 L 9.457031 20.050781 C 9.429688 20.070312 9.414062 20.101562 9.414062 20.132812 L 9.414062 36.859375 L 2.765625 38.757812 C 2.753906 38.761719 2.746094 38.769531 2.738281 38.773438 C 2.734375 38.773438 2.734375 38.773438 2.734375 38.773438 C 2.734375 38.777344 2.734375 38.777344 2.730469 38.777344 C 2.722656 38.785156 2.714844 38.792969 2.710938 38.804688 C 2.710938 38.804688 2.707031 38.808594 2.707031 38.8125 C 2.703125 38.824219 2.699219 38.835938 2.699219 38.851562 L 2.699219 59.316406 C 2.699219 59.355469 2.726562 59.394531 2.765625 59.40625 L 18.421875 63.882812 C 18.421875 63.882812 18.421875 63.882812 18.425781 63.886719 L 34.101562 68.359375 C 34.109375 68.359375 34.121094 68.363281 34.128906 68.363281 C 34.136719 68.363281 34.144531 68.359375 34.15625 68.359375 L 36.363281 67.722656 C 36.363281 67.722656 36.367188 67.722656 36.367188 67.722656 C 36.375 67.722656 36.382812 67.722656 36.390625 67.71875 L 44.648438 65.359375 L 44.890625 65.429688 L 43.613281 65.78125 C 43.601562 65.785156 43.59375 65.792969 43.582031 65.796875 C 43.582031 65.800781 43.578125 65.800781 43.578125 65.800781 C 43.570312 65.808594 43.5625 65.816406 43.558594 65.828125 C 43.554688 65.828125 43.554688 65.832031 43.554688 65.835938 C 43.546875 65.847656 43.542969 65.859375 43.542969 65.871094 C 43.542969 65.871094 43.542969 65.875 43.542969 65.875 L 43.542969 67.496094 C 43.542969 67.539062 43.574219 67.574219 43.613281 67.585938 L 49.164062 69.171875 C 49.171875 69.175781 49.179688 69.175781 49.191406 69.175781 C 49.199219 69.175781 49.207031 69.175781 49.214844 69.171875 L 53.574219 67.925781 L 58.007812 69.203125 C 58.015625 69.207031 58.023438 69.207031 58.03125 69.207031 C 58.042969 69.207031 58.050781 69.207031 58.058594 69.203125 L 72.222656 65.15625 C 72.261719 65.144531 72.289062 65.109375 72.289062 65.066406 L 72.289062 48.039062 C 72.289062 48.039062 72.292969 48.039062 72.292969 48.039062 C 72.300781 48.007812 72.292969 47.972656 72.269531 47.949219 Z M 72.269531 47.949219 " fill-opacity="1" fill-rule="nonzero"/></g><g clip-path="url(#008ebe8070)"><path fill="#ccd9ea" d="M 44.652344 36.839844 L 58.75 32.796875 L 58.75 21.183594 L 50.757812 23.464844 L 36.367188 27.578125 L 36.367188 47.164062 L 37.054688 46.964844 L 37.054688 67.425781 L 36.367188 67.625 L 36.367188 67.628906 L 44.652344 65.261719 Z M 40.746094 29.796875 L 54.5 25.867188 L 54.5 30.46875 L 40.746094 34.398438 Z M 18.460938 57.394531 L 18.449219 61.234375 L 5.640625 57.570312 L 3.863281 57.0625 L 3.851562 57.058594 L 2.792969 56.757812 L 3.851562 57.058594 L 3.851562 40.269531 L 10.625 42.203125 L 10.625 55.15625 L 13.984375 56.117188 L 15.058594 56.425781 L 18.449219 57.394531 Z M 22.492188 15.027344 L 23.671875 16.375 L 18.460938 19.421875 L 18.460938 35.25 L 11.65625 37.195312 L 11.65625 21.367188 Z M 62.925781 50.671875 L 58.75 51.867188 L 58.101562 52.054688 L 58.0625 61.429688 L 58.03125 69.113281 L 72.195312 65.066406 L 72.195312 48.011719 Z M 67.515625 57.222656 L 62.714844 58.59375 L 62.714844 53.992188 L 67.515625 52.621094 Z M 52.59375 64.59375 L 53.667969 64.898438 L 53.667969 67.800781 L 53.574219 67.828125 L 49.191406 69.082031 L 49.191406 67.460938 L 43.636719 65.875 L 45.238281 65.429688 L 45.914062 65.242188 L 51.464844 66.828125 L 51.464844 65.527344 L 53.160156 65.046875 L 51.464844 65.527344 L 47.566406 64.429688 L 45.914062 63.964844 L 48.117188 63.3125 L 49.191406 63.621094 L 49.792969 63.792969 Z M 52.59375 64.59375 " fill-opacity="1" fill-rule="nonzero"/></g><g clip-path="url(#3a3594064d)"><path fill="#b26eef" d="M 36.367188 27.578125 L 22.9375 12.277344 L 45.320312 5.882812 L 58.75 21.183594 L 50.757812 23.464844 Z M 34.21875 39.753906 L 21.683594 36.171875 L 20.609375 35.867188 L 18.460938 35.25 L 11.65625 37.195312 L 34.21875 43.640625 Z M 58.75 32.796875 L 44.652344 36.839844 L 58.101562 52.054688 L 58.75 51.867188 L 62.925781 50.671875 L 72.195312 48.011719 L 72.199219 48.011719 Z M 48.117188 63.3125 L 49.191406 63.621094 L 49.792969 63.792969 L 52.59375 64.59375 L 53.667969 64.898438 L 53.667969 54.667969 L 48.117188 53.082031 Z M 36.367188 47.164062 L 37.054688 46.964844 L 37.054688 67.425781 L 36.367188 67.625 L 34.128906 68.269531 L 18.449219 63.792969 L 18.449219 61.234375 L 18.460938 57.394531 L 18.449219 57.394531 L 18.449219 43.335938 L 34.128906 47.808594 Z M 32.4375 50.328125 L 20.140625 46.820312 L 20.140625 60.433594 L 32.4375 63.941406 Z M 32.4375 50.328125 " fill-opacity="1" fill-rule="nonzero"/></g><g clip-path="url(#c4257324ce)"><path fill="#efeee4" d="M 13.984375 56.117188 L 13.984375 45.882812 L 18.449219 47.160156 L 18.449219 57.394531 L 15.058594 56.425781 Z M 22.9375 12.277344 L 36.367188 27.578125 L 36.367188 46.761719 L 9.507812 39.089844 L 9.507812 20.132812 Z M 23.671875 16.375 L 22.492188 15.027344 L 11.65625 21.367188 L 11.65625 37.195312 L 34.21875 43.640625 L 34.21875 29.472656 L 21.683594 25.992188 L 21.683594 36.171875 L 20.609375 35.867188 L 18.460938 35.25 L 18.460938 19.421875 Z M 20.140625 46.820312 L 32.4375 50.328125 L 32.4375 63.941406 L 20.140625 60.433594 Z M 21.214844 59.621094 L 31.363281 62.519531 L 31.363281 51.140625 L 21.214844 48.242188 Z M 44.652344 36.839844 L 44.652344 65.261719 L 45.238281 65.429688 L 45.914062 65.242188 L 51.464844 66.828125 L 51.464844 65.527344 L 53.160156 65.046875 L 51.464844 65.527344 L 47.566406 64.429688 L 45.914062 63.964844 L 48.117188 63.3125 L 48.117188 53.082031 L 53.667969 54.667969 L 53.667969 67.800781 L 53.574219 67.828125 L 58.03125 69.113281 L 58.0625 61.429688 L 58.101562 52.054688 Z M 43.636719 67.496094 L 49.191406 69.082031 L 49.191406 67.460938 L 43.636719 65.875 Z M 18.449219 63.792969 L 18.449219 61.234375 L 5.640625 57.570312 L 3.863281 57.0625 L 3.851562 57.058594 L 2.792969 56.757812 L 2.792969 59.316406 Z M 10.625 41.089844 L 10.140625 40.949219 L 2.792969 38.851562 L 2.792969 56.757812 L 3.851562 57.058594 L 3.851562 40.269531 L 10.625 42.203125 L 18.449219 44.441406 L 18.449219 43.328125 Z M 10.625 41.089844 " fill-opacity="1" fill-rule="nonzero"/></g><path fill="#1f0e76" d="M 21.214844 48.242188 L 31.363281 51.140625 L 31.363281 62.519531 L 21.214844 59.621094 Z M 21.683594 36.171875 L 34.21875 39.753906 L 34.21875 29.472656 L 21.683594 25.992188 Z M 40.746094 34.398438 L 54.5 30.46875 L 54.5 25.867188 L 40.746094 29.796875 Z M 62.714844 53.992188 L 62.714844 58.59375 L 67.515625 57.222656 L 67.515625 52.621094 Z M 62.714844 53.992188 " fill-opacity="1" fill-rule="nonzero"/><path fill="#efeee4" d="M 30.46875 61.230469 C 30.445312 61.230469 30.421875 61.21875 30.402344 61.203125 L 28.679688 59.480469 C 28.640625 59.441406 28.640625 59.382812 28.679688 59.347656 C 28.714844 59.308594 28.773438 59.308594 28.8125 59.347656 L 30.535156 61.070312 C 30.570312 61.105469 30.570312 61.164062 30.535156 61.203125 C 30.515625 61.21875 30.492188 61.230469 30.46875 61.230469 Z M 26.917969 60.09375 C 26.894531 60.09375 26.871094 60.085938 26.851562 60.066406 L 25.128906 58.34375 C 25.09375 58.308594 25.09375 58.25 25.128906 58.210938 C 25.167969 58.175781 25.226562 58.175781 25.261719 58.210938 L 26.984375 59.933594 C 27.023438 59.972656 27.023438 60.03125 26.984375 60.066406 C 26.96875 60.085938 26.945312 60.09375 26.917969 60.09375 Z M 23.582031 59.007812 C 23.558594 59.007812 23.535156 59 23.515625 58.980469 L 21.792969 57.257812 C 21.757812 57.21875 21.757812 57.160156 21.792969 57.125 C 21.828125 57.085938 21.890625 57.085938 21.925781 57.125 L 23.648438 58.847656 C 23.6875 58.882812 23.6875 58.941406 23.648438 58.980469 C 23.628906 59 23.605469 59.007812 23.582031 59.007812 Z M 30.46875 57.523438 C 30.445312 57.523438 30.421875 57.515625 30.402344 57.496094 L 28.679688 55.773438 C 28.640625 55.734375 28.640625 55.675781 28.679688 55.640625 C 28.714844 55.601562 28.773438 55.601562 28.8125 55.640625 L 30.535156 57.363281 C 30.570312 57.398438 30.570312 57.460938 30.535156 57.496094 C 30.515625 57.515625 30.492188 57.523438 30.46875 57.523438 Z M 64.253906 56.582031 C 64.230469 56.582031 64.207031 56.574219 64.1875 56.554688 C 64.152344 56.519531 64.152344 56.457031 64.1875 56.421875 L 66.230469 54.378906 C 66.269531 54.34375 66.328125 54.34375 66.363281 54.378906 C 66.402344 54.414062 66.402344 54.476562 66.363281 54.511719 L 64.320312 56.554688 C 64.304688 56.574219 64.277344 56.582031 64.253906 56.582031 Z M 26.917969 56.421875 C 26.894531 56.421875 26.871094 56.414062 26.851562 56.394531 L 25.128906 54.671875 C 25.09375 54.636719 25.09375 54.574219 25.128906 54.539062 C 25.167969 54.503906 25.226562 54.503906 25.261719 54.539062 L 26.984375 56.261719 C 27.023438 56.296875 27.023438 56.359375 26.984375 56.394531 C 26.96875 56.414062 26.945312 56.421875 26.917969 56.421875 Z M 23.582031 55.335938 C 23.558594 55.335938 23.535156 55.324219 23.515625 55.308594 L 21.792969 53.582031 C 21.757812 53.546875 21.757812 53.488281 21.792969 53.449219 C 21.828125 53.414062 21.890625 53.414062 21.925781 53.449219 L 23.648438 55.175781 C 23.6875 55.210938 23.6875 55.269531 23.648438 55.308594 C 23.628906 55.324219 23.605469 55.335938 23.582031 55.335938 Z M 30.46875 53.890625 C 30.445312 53.890625 30.421875 53.878906 30.402344 53.863281 L 28.679688 52.140625 C 28.640625 52.101562 28.640625 52.042969 28.679688 52.007812 C 28.714844 51.96875 28.773438 51.96875 28.8125 52.007812 L 30.535156 53.730469 C 30.570312 53.765625 30.570312 53.824219 30.535156 53.863281 C 30.515625 53.878906 30.492188 53.890625 30.46875 53.890625 Z M 26.917969 52.75 C 26.894531 52.75 26.871094 52.742188 26.851562 52.722656 L 25.128906 51 C 25.09375 50.960938 25.09375 50.902344 25.128906 50.867188 C 25.167969 50.828125 25.226562 50.828125 25.261719 50.867188 L 26.984375 52.589844 C 27.023438 52.625 27.023438 52.683594 26.984375 52.722656 C 26.96875 52.742188 26.945312 52.75 26.917969 52.75 Z M 23.582031 51.660156 C 23.558594 51.660156 23.535156 51.652344 23.515625 51.632812 L 21.792969 49.910156 C 21.757812 49.875 21.757812 49.816406 21.792969 49.777344 C 21.828125 49.742188 21.890625 49.742188 21.925781 49.777344 L 23.648438 51.5 C 23.6875 51.539062 23.6875 51.597656 23.648438 51.632812 C 23.628906 51.652344 23.605469 51.660156 23.582031 51.660156 Z M 31.167969 35.953125 C 31.140625 35.953125 31.117188 35.941406 31.101562 35.925781 L 27.933594 32.761719 C 27.898438 32.722656 27.898438 32.664062 27.933594 32.628906 C 27.972656 32.589844 28.03125 32.589844 28.066406 32.628906 L 31.234375 35.792969 C 31.269531 35.828125 31.269531 35.886719 31.234375 35.925781 C 31.214844 35.941406 31.191406 35.953125 31.167969 35.953125 Z M 25.285156 33.84375 C 25.261719 33.84375 25.234375 33.835938 25.21875 33.816406 L 23.496094 32.09375 C 23.457031 32.058594 23.457031 32 23.496094 31.960938 C 23.53125 31.925781 23.589844 31.925781 23.628906 31.960938 L 25.351562 33.683594 C 25.386719 33.722656 25.386719 33.78125 25.351562 33.816406 C 25.332031 33.835938 25.308594 33.84375 25.285156 33.84375 Z M 42.03125 32.6875 C 42.007812 32.6875 41.980469 32.679688 41.964844 32.660156 C 41.925781 32.625 41.925781 32.5625 41.964844 32.527344 L 44.007812 30.484375 C 44.042969 30.449219 44.101562 30.449219 44.140625 30.484375 C 44.175781 30.523438 44.175781 30.582031 44.140625 30.617188 L 42.097656 32.660156 C 42.078125 32.679688 42.054688 32.6875 42.03125 32.6875 Z M 46.601562 31.25 C 46.578125 31.25 46.554688 31.238281 46.535156 31.21875 C 46.496094 31.183594 46.496094 31.125 46.535156 31.085938 L 48.578125 29.046875 C 48.613281 29.007812 48.671875 29.007812 48.710938 29.046875 C 48.746094 29.082031 48.746094 29.140625 48.710938 29.179688 L 46.667969 31.21875 C 46.648438 31.238281 46.625 31.25 46.601562 31.25 Z M 25.792969 30.582031 C 25.769531 30.582031 25.746094 30.570312 25.726562 30.554688 L 22.796875 27.625 C 22.761719 27.585938 22.761719 27.527344 22.796875 27.492188 C 22.835938 27.453125 22.894531 27.453125 22.933594 27.492188 L 25.859375 30.421875 C 25.898438 30.457031 25.898438 30.515625 25.859375 30.554688 C 25.84375 30.570312 25.816406 30.582031 25.792969 30.582031 Z M 51.460938 29.851562 C 51.4375 29.851562 51.414062 29.84375 51.394531 29.824219 C 51.359375 29.789062 51.359375 29.726562 51.394531 29.691406 L 53.4375 27.648438 C 53.472656 27.613281 53.535156 27.613281 53.570312 27.648438 C 53.605469 27.6875 53.605469 27.746094 53.570312 27.78125 L 51.527344 29.824219 C 51.511719 29.84375 51.484375 29.851562 51.460938 29.851562 Z M 51.460938 29.851562 " fill-opacity="1" fill-rule="nonzero"/><g clip-path="url(#8172343bff)"><path fill="#32312b" d="M 20.113281 60.523438 L 32.410156 64.03125 C 32.417969 64.035156 32.429688 64.035156 32.4375 64.035156 C 32.457031 64.035156 32.476562 64.03125 32.492188 64.019531 C 32.515625 64 32.53125 63.972656 32.53125 63.941406 L 32.53125 50.328125 C 32.53125 50.285156 32.503906 50.25 32.460938 50.238281 L 20.164062 46.730469 C 20.136719 46.722656 20.105469 46.726562 20.082031 46.746094 C 20.058594 46.761719 20.042969 46.789062 20.042969 46.820312 L 20.042969 60.433594 C 20.042969 60.476562 20.074219 60.511719 20.113281 60.523438 Z M 20.234375 46.945312 L 32.34375 50.398438 L 32.34375 63.816406 L 20.234375 60.363281 Z M 31.386719 51.050781 L 21.238281 48.152344 C 21.210938 48.144531 21.179688 48.152344 21.15625 48.167969 C 21.132812 48.1875 21.121094 48.214844 21.121094 48.242188 L 21.121094 59.621094 C 21.121094 59.664062 21.148438 59.703125 21.1875 59.714844 L 24.234375 60.582031 L 24.246094 60.585938 L 27.894531 61.625 L 27.90625 61.628906 L 31.335938 62.609375 C 31.34375 62.613281 31.355469 62.613281 31.363281 62.613281 C 31.382812 62.613281 31.402344 62.605469 31.417969 62.59375 C 31.441406 62.574219 31.457031 62.546875 31.457031 62.519531 L 31.457031 51.140625 C 31.457031 51.097656 31.429688 51.0625 31.386719 51.050781 Z M 31.269531 51.210938 L 31.269531 54.980469 L 28.027344 54.054688 L 28.027344 50.285156 Z M 27.839844 50.230469 L 27.839844 54 L 24.367188 53.011719 L 24.367188 49.242188 Z M 27.839844 54.199219 L 27.839844 57.796875 L 24.367188 56.804688 L 24.367188 53.207031 Z M 24.179688 49.1875 L 24.179688 52.957031 L 21.308594 52.136719 L 21.308594 48.367188 Z M 24.179688 53.152344 L 24.179688 56.753906 L 21.308594 55.933594 L 21.308594 52.332031 Z M 21.308594 59.550781 L 21.308594 56.128906 L 24.179688 56.949219 L 24.179688 60.371094 Z M 24.367188 60.425781 L 24.367188 57 L 27.839844 57.992188 L 27.839844 61.414062 Z M 28.027344 58.046875 L 31.269531 58.972656 L 31.269531 62.394531 L 28.027344 61.46875 Z M 28.027344 57.851562 L 28.027344 54.25 L 31.269531 55.175781 L 31.269531 58.777344 Z M 11.574219 37.242188 C 11.582031 37.25 11.585938 37.257812 11.59375 37.265625 C 11.597656 37.265625 11.597656 37.269531 11.597656 37.269531 C 11.597656 37.269531 11.601562 37.269531 11.601562 37.269531 C 11.605469 37.273438 11.609375 37.273438 11.613281 37.277344 C 11.617188 37.28125 11.621094 37.28125 11.628906 37.285156 L 34.191406 43.730469 C 34.199219 43.734375 34.210938 43.734375 34.21875 43.734375 C 34.238281 43.734375 34.257812 43.730469 34.273438 43.714844 C 34.296875 43.699219 34.3125 43.671875 34.3125 43.640625 L 34.3125 28.386719 C 34.3125 28.375 34.308594 28.363281 34.304688 28.355469 C 34.304688 28.351562 34.304688 28.347656 34.300781 28.347656 C 34.296875 28.339844 34.296875 28.332031 34.289062 28.328125 C 34.289062 28.328125 34.289062 28.324219 34.289062 28.324219 L 23.742188 16.3125 L 22.5625 14.96875 C 22.53125 14.933594 22.484375 14.925781 22.445312 14.949219 L 11.609375 21.285156 C 11.605469 21.285156 11.605469 21.285156 11.605469 21.289062 C 11.601562 21.289062 11.597656 21.292969 11.597656 21.292969 C 11.59375 21.296875 11.589844 21.300781 11.585938 21.304688 C 11.582031 21.304688 11.582031 21.308594 11.582031 21.308594 C 11.578125 21.308594 11.578125 21.3125 11.578125 21.3125 C 11.574219 21.320312 11.570312 21.324219 11.570312 21.332031 C 11.566406 21.332031 11.566406 21.335938 11.566406 21.335938 C 11.566406 21.335938 11.566406 21.339844 11.566406 21.339844 C 11.5625 21.347656 11.5625 21.355469 11.5625 21.367188 L 11.5625 37.195312 C 11.5625 37.207031 11.566406 37.21875 11.570312 37.230469 C 11.570312 37.234375 11.574219 37.238281 11.574219 37.242188 Z M 34.125 42.589844 L 32.503906 43.054688 L 31.984375 42.90625 L 31.984375 41.625 L 34.125 41.015625 Z M 34.125 43.515625 L 32.84375 43.152344 L 34.125 42.785156 Z M 29.746094 42.265625 L 31.796875 41.679688 L 31.796875 42.851562 Z M 26.644531 41.378906 L 26.679688 41.367188 L 26.679688 41.390625 Z M 23.542969 40.492188 L 24.121094 40.328125 L 24.121094 40.660156 Z M 20.441406 39.605469 L 21.5625 39.285156 L 21.5625 39.929688 Z M 17.339844 38.722656 L 19.003906 38.246094 L 19.003906 39.195312 Z M 15.332031 20.414062 L 18.367188 19.546875 L 18.367188 33.847656 L 11.75 31.957031 L 11.75 21.4375 Z M 31.796875 41.484375 L 29.425781 42.160156 L 29.425781 40.585938 L 31.796875 39.90625 Z M 11.75 32.152344 L 13.890625 32.765625 L 13.890625 36.460938 L 11.75 37.070312 Z M 19.191406 35.558594 L 20.359375 35.890625 L 19.191406 36.222656 Z M 16.636719 35.871094 L 18.460938 35.347656 L 19.003906 35.503906 L 19.003906 36.277344 L 16.636719 36.953125 Z M 31.796875 37.683594 L 26.882812 36.28125 L 26.882812 27.53125 L 31.796875 28.894531 Z M 26.679688 37.503906 L 24.308594 36.824219 L 24.308594 35.742188 L 26.679688 36.417969 Z M 24.121094 36.773438 L 21.777344 36.101562 L 21.777344 35.019531 L 24.121094 35.6875 Z M 29.425781 38.484375 L 29.660156 38.550781 L 29.425781 38.617188 Z M 29.238281 38.234375 L 27.003906 37.59375 L 26.882812 37.558594 L 26.882812 36.476562 L 29.238281 37.148438 Z M 26.695312 36.226562 L 21.777344 34.824219 L 21.777344 26.117188 L 26.695312 27.480469 Z M 21.75 36.289062 L 23.457031 36.777344 L 21.75 37.265625 Z M 24.308594 37.019531 L 26.558594 37.664062 L 24.308594 38.304688 Z M 26.867188 37.769531 L 26.902344 37.761719 L 26.96875 37.78125 L 29.238281 38.429688 L 29.238281 38.671875 L 26.867188 39.347656 Z M 29.425781 38.8125 L 30.003906 38.648438 L 31.796875 39.160156 L 31.796875 39.710938 L 29.425781 40.390625 Z M 31.984375 39.214844 L 32.761719 39.4375 L 31.984375 39.65625 Z M 31.796875 38.964844 L 29.425781 38.285156 L 29.425781 37.203125 L 31.796875 37.878906 Z M 31.984375 28.949219 L 34.125 29.542969 L 34.125 38.351562 L 31.984375 37.738281 Z M 21.5625 36.039062 L 20.703125 35.792969 L 20.703125 34.710938 L 21.5625 34.957031 Z M 18.367188 35.179688 L 16.636719 35.675781 L 16.636719 33.550781 L 18.367188 34.042969 Z M 16.445312 35.730469 L 14.867188 36.179688 L 14.078125 36.40625 L 14.078125 32.816406 L 16.445312 33.496094 Z M 16.445312 35.925781 L 16.445312 37.007812 L 14.078125 37.683594 L 14.078125 36.601562 Z M 19.191406 36.417969 L 20.699219 35.988281 L 21.5625 36.234375 L 21.5625 37.320312 L 19.191406 37.996094 Z M 21.75 37.460938 L 23.800781 36.875 L 24.121094 36.96875 L 24.121094 38.359375 L 21.75 39.035156 Z M 24.308594 38.503906 L 26.679688 37.824219 L 26.679688 39.402344 L 24.308594 40.078125 Z M 26.867188 39.542969 L 29.238281 38.867188 L 29.238281 40.441406 L 26.867188 41.121094 Z M 31.984375 37.933594 L 34.125 38.546875 L 34.125 39.628906 L 31.984375 39.019531 Z M 34.125 29.347656 L 21.707031 25.902344 C 21.679688 25.894531 21.648438 25.898438 21.625 25.917969 C 21.601562 25.933594 21.589844 25.960938 21.589844 25.992188 L 21.589844 34.769531 L 20.703125 34.515625 L 20.703125 24.640625 L 34.125 28.457031 Z M 11.996094 37.195312 L 13.890625 36.65625 L 13.890625 37.734375 Z M 14.238281 37.835938 L 16.445312 37.203125 L 16.445312 38.464844 Z M 16.636719 38.519531 L 16.636719 37.148438 L 19.003906 36.472656 L 19.003906 38.050781 L 16.996094 38.625 Z M 19.191406 39.25 L 19.191406 38.191406 L 21.5625 37.515625 L 21.5625 39.089844 L 20.097656 39.507812 Z M 21.75 39.234375 L 24.121094 38.554688 L 24.121094 40.132812 L 23.199219 40.394531 L 21.75 39.980469 Z M 24.308594 40.273438 L 26.679688 39.597656 L 26.679688 41.171875 L 26.300781 41.28125 L 24.308594 40.710938 Z M 26.867188 41.316406 L 29.238281 40.636719 L 29.238281 42.121094 L 26.867188 41.445312 Z M 31.984375 41.429688 L 31.984375 39.855469 L 33.105469 39.535156 L 34.125 39.824219 L 34.125 40.820312 Z M 18.421875 19.335938 L 12.347656 21.070312 L 22.472656 15.148438 L 23.527344 16.351562 Z M 55.667969 31.277344 L 55.667969 24.441406 C 55.667969 24.414062 55.65625 24.386719 55.632812 24.367188 C 55.609375 24.351562 55.578125 24.34375 55.546875 24.351562 L 39.644531 28.898438 C 39.605469 28.910156 39.574219 28.945312 39.574219 28.988281 L 39.574219 35.824219 C 39.574219 35.851562 39.589844 35.878906 39.613281 35.898438 C 39.628906 35.910156 39.648438 35.917969 39.671875 35.917969 C 39.679688 35.917969 39.6875 35.914062 39.695312 35.914062 L 55.601562 31.367188 C 55.640625 31.355469 55.667969 31.320312 55.667969 31.277344 Z M 50.199219 27.195312 L 50.199219 31.597656 L 45.414062 32.964844 L 45.414062 28.5625 Z M 54.40625 25.992188 L 54.40625 30.398438 L 50.390625 31.542969 L 50.390625 27.140625 Z M 45.226562 33.019531 L 40.839844 34.273438 L 40.839844 29.867188 L 45.226562 28.613281 Z M 72.269531 47.949219 L 58.84375 32.761719 L 58.84375 21.183594 C 58.84375 21.179688 58.84375 21.179688 58.84375 21.179688 C 58.84375 21.167969 58.839844 21.152344 58.835938 21.140625 C 58.832031 21.132812 58.828125 21.125 58.820312 21.121094 L 45.390625 5.820312 C 45.367188 5.792969 45.328125 5.785156 45.292969 5.792969 L 22.910156 12.1875 C 22.910156 12.1875 22.90625 12.191406 22.90625 12.191406 C 22.898438 12.195312 22.894531 12.195312 22.890625 12.199219 L 9.457031 20.050781 C 9.429688 20.070312 9.414062 20.101562 9.414062 20.132812 L 9.414062 36.859375 L 2.765625 38.757812 C 2.753906 38.761719 2.746094 38.769531 2.738281 38.773438 C 2.734375 38.773438 2.734375 38.773438 2.734375 38.773438 C 2.734375 38.777344 2.734375 38.777344 2.730469 38.777344 C 2.722656 38.785156 2.714844 38.792969 2.710938 38.804688 C 2.710938 38.804688 2.707031 38.808594 2.707031 38.8125 C 2.703125 38.824219 2.699219 38.835938 2.699219 38.851562 L 2.699219 59.316406 C 2.699219 59.355469 2.726562 59.394531 2.765625 59.40625 L 18.421875 63.882812 C 18.421875 63.882812 18.421875 63.882812 18.425781 63.886719 L 34.101562 68.359375 C 34.109375 68.359375 34.121094 68.363281 34.128906 68.363281 C 34.136719 68.363281 34.144531 68.359375 34.15625 68.359375 L 36.363281 67.722656 C 36.363281 67.722656 36.367188 67.722656 36.367188 67.722656 C 36.375 67.722656 36.382812 67.722656 36.390625 67.71875 L 44.648438 65.359375 L 44.890625 65.429688 L 43.613281 65.78125 C 43.601562 65.785156 43.59375 65.792969 43.582031 65.796875 C 43.582031 65.800781 43.578125 65.800781 43.578125 65.800781 C 43.570312 65.808594 43.5625 65.816406 43.558594 65.828125 C 43.554688 65.828125 43.554688 65.832031 43.554688 65.835938 C 43.546875 65.847656 43.542969 65.859375 43.542969 65.871094 C 43.542969 65.871094 43.542969 65.875 43.542969 65.875 L 43.542969 67.496094 C 43.542969 67.539062 43.574219 67.574219 43.613281 67.585938 L 49.164062 69.171875 C 49.171875 69.175781 49.179688 69.175781 49.191406 69.175781 C 49.199219 69.175781 49.207031 69.175781 49.214844 69.171875 L 53.574219 67.925781 L 58.007812 69.203125 C 58.015625 69.207031 58.023438 69.207031 58.03125 69.207031 C 58.042969 69.207031 58.050781 69.207031 58.058594 69.203125 L 72.222656 65.15625 C 72.261719 65.144531 72.289062 65.109375 72.289062 65.066406 L 72.289062 48.039062 C 72.289062 48.039062 72.292969 48.039062 72.292969 48.039062 C 72.300781 48.007812 72.292969 47.972656 72.269531 47.949219 Z M 72.101562 64.996094 L 58.128906 68.988281 L 58.15625 62.019531 L 58.15625 61.402344 L 58.160156 61.304688 L 58.195312 52.125 L 58.65625 51.992188 L 58.84375 51.9375 L 72.101562 48.136719 Z M 49.285156 68.957031 L 49.285156 67.53125 L 50.765625 67.121094 L 50.941406 67.070312 L 51.113281 67.023438 L 51.492188 66.917969 C 51.507812 66.914062 51.519531 66.90625 51.53125 66.898438 C 51.535156 66.890625 51.542969 66.882812 51.546875 66.878906 C 51.546875 66.875 51.550781 66.871094 51.550781 66.867188 C 51.558594 66.855469 51.558594 66.84375 51.558594 66.832031 C 51.558594 66.832031 51.5625 66.832031 51.5625 66.828125 L 51.5625 65.597656 L 52.429688 65.351562 L 53.574219 65.023438 L 53.574219 67.730469 L 53.402344 67.78125 L 53.230469 67.828125 Z M 43.984375 65.875 L 45.238281 65.527344 L 45.582031 65.433594 L 45.914062 65.339844 L 47.996094 65.9375 L 51.117188 66.828125 L 50.769531 66.925781 L 50.59375 66.972656 L 50.421875 67.019531 L 49.191406 67.363281 L 47.246094 66.804688 Z M 43.734375 65.996094 L 49.097656 67.53125 L 49.097656 68.957031 L 43.734375 67.425781 Z M 46.007812 64.875 L 46.007812 64.089844 L 46.410156 64.203125 L 47.21875 64.429688 L 47.394531 64.476562 L 47.566406 64.527344 L 50.398438 65.324219 L 51.371094 65.601562 L 51.371094 66.703125 L 46.007812 65.171875 Z M 46.253906 63.960938 L 48.117188 63.410156 L 49.164062 63.710938 L 49.449219 63.792969 L 49.621094 63.84375 L 49.792969 63.890625 L 50.230469 64.015625 L 53.324219 64.898438 L 52.445312 65.152344 L 51.464844 65.429688 L 50.027344 65.027344 L 47.910156 64.429688 L 47.738281 64.378906 L 47.566406 64.332031 Z M 53.574219 62.613281 L 53.574219 64.777344 L 52.6875 64.523438 L 52.6875 55.519531 C 52.6875 55.476562 52.660156 55.441406 52.617188 55.429688 L 49.214844 54.457031 C 49.1875 54.449219 49.15625 54.453125 49.132812 54.472656 C 49.109375 54.488281 49.097656 54.515625 49.097656 54.546875 L 49.097656 63.496094 L 48.210938 63.242188 L 48.210938 53.207031 L 53.574219 54.738281 Z M 49.285156 63.550781 L 49.285156 54.671875 L 52.5 55.589844 L 52.5 64.46875 L 51.109375 64.070312 L 50.132812 63.792969 L 49.964844 63.746094 L 49.800781 63.699219 L 49.792969 63.695312 Z M 53.761719 64.898438 L 53.761719 54.667969 C 53.761719 54.625 53.734375 54.589844 53.691406 54.578125 L 48.140625 52.992188 C 48.113281 52.984375 48.082031 52.988281 48.058594 53.007812 C 48.035156 53.023438 48.019531 53.050781 48.019531 53.082031 L 48.023438 63.242188 L 45.890625 63.875 C 45.878906 63.878906 45.867188 63.882812 45.859375 63.890625 C 45.859375 63.890625 45.855469 63.890625 45.855469 63.894531 C 45.847656 63.898438 45.839844 63.910156 45.835938 63.917969 C 45.832031 63.921875 45.832031 63.925781 45.832031 63.925781 C 45.824219 63.9375 45.820312 63.949219 45.820312 63.964844 L 45.820312 65.171875 L 45.238281 65.332031 L 44.992188 65.261719 L 44.820312 65.214844 L 44.746094 65.191406 L 44.746094 37.089844 L 47.496094 40.199219 L 58.007812 52.089844 L 57.96875 61.359375 L 57.96875 61.554688 L 57.941406 68.988281 L 53.761719 67.785156 Z M 37.152344 67.308594 L 37.152344 46.964844 C 37.152344 46.953125 37.148438 46.941406 37.140625 46.929688 C 37.140625 46.925781 37.140625 46.921875 37.136719 46.921875 C 37.132812 46.910156 37.125 46.902344 37.117188 46.894531 C 37.113281 46.894531 37.113281 46.890625 37.113281 46.890625 C 37.101562 46.882812 37.09375 46.878906 37.082031 46.875 L 36.460938 46.699219 L 36.460938 27.648438 L 58.65625 21.308594 L 58.65625 32.726562 L 44.625 36.75 C 44.625 36.75 44.625 36.75 44.621094 36.75 C 44.621094 36.75 44.621094 36.75 44.617188 36.75 C 44.605469 36.757812 44.597656 36.761719 44.585938 36.769531 C 44.585938 36.773438 44.582031 36.773438 44.582031 36.777344 C 44.574219 36.789062 44.566406 36.800781 44.5625 36.8125 C 44.5625 36.8125 44.5625 36.8125 44.558594 36.8125 C 44.558594 36.820312 44.558594 36.828125 44.558594 36.839844 L 44.558594 65.191406 Z M 36.015625 67.625 L 34.222656 68.144531 L 34.222656 47.882812 L 36.023438 47.363281 L 36.273438 47.289062 L 36.460938 47.234375 L 36.960938 47.089844 L 36.960938 67.355469 L 36.460938 67.5 L 36.367188 67.527344 L 36.273438 67.550781 L 36.1875 67.578125 Z M 45.289062 5.992188 L 58.582031 21.132812 L 51.226562 23.234375 L 36.398438 27.46875 L 23.105469 12.328125 Z M 2.886719 56.882812 L 3.800781 57.144531 L 3.855469 57.160156 L 9.414062 58.75 L 9.507812 58.773438 L 9.601562 58.800781 L 18.355469 61.308594 L 18.355469 63.667969 L 2.886719 59.242188 Z M 2.886719 38.972656 L 3.757812 39.222656 L 3.851562 39.25 L 9.25 40.792969 L 9.414062 40.839844 L 9.601562 40.894531 L 10.53125 41.160156 L 10.71875 41.214844 L 18.355469 43.398438 L 18.355469 44.316406 L 10.71875 42.132812 L 10.53125 42.078125 L 9.601562 41.8125 L 9.414062 41.757812 L 3.945312 40.195312 L 3.878906 40.175781 C 3.871094 40.175781 3.863281 40.175781 3.851562 40.175781 C 3.832031 40.175781 3.8125 40.179688 3.796875 40.191406 C 3.773438 40.210938 3.757812 40.238281 3.757812 40.265625 L 3.757812 56.933594 L 3.132812 56.757812 L 2.960938 56.707031 L 2.886719 56.6875 Z M 18.355469 57.269531 L 15.792969 56.535156 L 15.175781 56.359375 L 15.152344 56.351562 L 15.152344 47.472656 L 18.355469 48.390625 Z M 10.53125 55.035156 L 10.53125 55.085938 L 10.453125 55.109375 L 10.28125 55.15625 L 9.601562 55.347656 L 9.414062 55.402344 L 3.949219 56.941406 L 3.949219 40.390625 L 9.414062 41.953125 L 9.601562 42.007812 L 10.53125 42.273438 Z M 9.414062 55.597656 L 9.601562 55.542969 L 10.625 55.253906 L 18.355469 57.464844 L 18.367188 57.46875 L 18.355469 61.113281 L 9.601562 58.605469 L 9.507812 58.578125 L 9.414062 58.554688 L 4.207031 57.0625 Z M 18.355469 48.195312 L 15.082031 47.257812 C 15.054688 47.25 15.023438 47.257812 15 47.273438 C 14.976562 47.292969 14.964844 47.320312 14.964844 47.351562 L 14.964844 56.300781 L 14.078125 56.046875 L 14.078125 46.007812 L 18.355469 47.230469 Z M 22.917969 12.398438 L 36.273438 27.613281 L 36.273438 46.636719 L 9.601562 39.019531 L 9.601562 20.1875 Z M 58.84375 51.742188 L 58.65625 51.796875 L 58.132812 51.945312 L 44.820312 36.890625 L 58.65625 32.921875 L 58.71875 32.902344 L 58.75 32.9375 L 58.84375 33.046875 L 72.03125 47.960938 Z M 18.542969 62.578125 L 18.542969 61.238281 L 18.554688 57.519531 L 18.554688 57.398438 C 18.554688 57.394531 18.554688 57.394531 18.554688 57.394531 C 18.554688 57.382812 18.550781 57.367188 18.542969 57.355469 L 18.542969 43.460938 L 33.996094 47.871094 L 34.035156 47.882812 L 34.035156 68.144531 L 18.542969 63.722656 Z M 61.640625 60.113281 C 61.648438 60.113281 61.65625 60.109375 61.664062 60.109375 L 68.617188 58.121094 C 68.65625 58.109375 68.683594 58.074219 68.683594 58.03125 L 68.683594 51.195312 C 68.683594 51.167969 68.671875 51.140625 68.648438 51.121094 C 68.625 51.101562 68.59375 51.097656 68.5625 51.105469 L 61.613281 53.089844 C 61.574219 53.101562 61.542969 53.140625 61.542969 53.183594 L 61.542969 60.019531 C 61.542969 60.046875 61.558594 60.074219 61.582031 60.09375 C 61.597656 60.105469 61.617188 60.113281 61.640625 60.113281 Z M 67.421875 52.746094 L 67.421875 57.148438 L 62.808594 58.46875 L 62.808594 54.0625 Z M 67.421875 52.746094 " fill-opacity="1" fill-rule="nonzero"/></g></svg>